<svg width="19" height="25" viewBox="0 0 19 25" fill="none" xmlns="http://www.w3.org/2000/svg">
<path d="M9.49442 0V2.09898L17.3265 15.19H14.4815L15.1063 16.2506H19L9.49442 0Z" fill="white"/>
<path d="M9.49442 2.09898V0L0 16.2506H5.11188H6.27627H11.5026L10.9002 15.19H6.90805H5.73151H1.69583L9.49442 2.09898Z" fill="white"/>
<path d="M9.49442 8.74945V10.8484L17.3265 23.9395H14.4815L15.1063 25H19L9.49442 8.74945Z" fill="white"/>
<path d="M10.9002 23.9395L11.5026 25H15.1063L14.4815 23.9395H10.9002Z" fill="white"/>
<path d="M10.9002 23.9395H1.69583L5.65765 17.289H4.50517L0 25H11.5026L10.9002 23.9395Z" fill="white"/>
<path d="M9.49442 10.8484V8.74945L6.29304 14.2289H7.48061L9.49442 10.8484Z" fill="white"/>
</svg>
